<svg height="512" viewBox="0 0 192 192" width="512" xmlns="http://www.w3.org/2000/svg" xmlns:xlink="http://www.w3.org/1999/xlink"><linearGradient id="linear-gradient" gradientUnits="userSpaceOnUse" x1="75.892" x2="127.205" y1="63.205" y2="11.892"><stop offset=".268" stop-color="#ff85a6"/><stop offset="1" stop-color="#e8d9f1"/></linearGradient><path d="m166.387 123.183a8 8 0 0 0 -6.387-3.183h-128a8 8 0 0 0 -7.692 10.2l12.684 44.395a24.1 24.1 0 0 0 23.076 17.405h71.864a24.1 24.1 0 0 0 23.076-17.407l12.684-44.393a8 8 0 0 0 -1.305-7.017z" fill="#ffb6ca"/><path d="m84.068 176a24.1 24.1 0 0 1 -23.076-17.407l-11.027-38.593h-17.965a8 8 0 0 0 -7.692 10.2l12.684 44.395a24.1 24.1 0 0 0 23.076 17.405h71.864a24.1 24.1 0 0 0 22.61-16z" fill="#ff9db8"/><path d="m68.655 170.342 2.407 21.658h16.1l-1.777-16h-1.317a24 24 0 0 1 -15.413-5.658z" fill="#ff85a6"/><path d="m64.049 128.883 4.606 41.459a24 24 0 0 0 15.413 5.658h1.315l-5.432-48.883z" fill="#ff9db8"/><path d="m104.84 192h16.098l1.778-16h-16.099z" fill="#ff85a6"/><path d="m112.049 127.117-5.432 48.883h16.099l5.235-47.117z" fill="#ff9db8"/><path d="m131.578 40.845c-8.692-4.345-11.555-24.012-11.578-32.845a8 8 0 0 0 -8-8c-24.749 0-36.585 13.281-42.155 24.422a58.139 58.139 0 0 0 -5.845 23.578 8 8 0 0 0 8 8h56a8 8 0 0 0 3.578-15.155z" fill="url(#linear-gradient)"/><path d="m132 40h-72a28 28 0 0 0 0 56h72a28 28 0 0 0 0-56z" fill="#ffcedb"/><path d="m148 80h-72a27.983 27.983 0 0 1 -26.1-38.1 28 28 0 0 0 10.1 54.1h72a28.038 28.038 0 0 0 26.1-17.895 27.833 27.833 0 0 1 -10.1 1.895z" fill="#ffb6ca"/><path d="m164 80h-136a28 28 0 0 0 0 56h136a28 28 0 0 0 0-56z" fill="#ffe7ed"/><path d="m180 120h-136a27.983 27.983 0 0 1 -26.1-38.1 28 28 0 0 0 10.1 54.1h136a28.038 28.038 0 0 0 26.1-17.895 27.833 27.833 0 0 1 -10.1 1.895z" fill="#ffcedb"/><path d="m96 69c-11.988-11.988-37.994-4.978-32 16 3.395 11.881 32 32 32 32s28.605-20.119 32-32c5.994-20.978-20.012-27.988-32-16z" fill="#ff85a6"/></svg>